<svg xmlns="http://www.w3.org/2000/svg">

    <symbol id="phone" viewBox="0 0 31 31" fill="none">
        <path d="M28.7946 24.0929C28.7946 24.5579 28.6912 25.0358 28.4717 25.5008C28.2521 25.9658 27.9679 26.405 27.5933 26.8183C26.9604 27.5158 26.2629 28.0196 25.475 28.3425C24.7 28.6654 23.8604 28.8333 22.9562 28.8333C21.6387 28.8333 20.2308 28.5233 18.7454 27.8904C17.26 27.2575 15.7746 26.405 14.3021 25.3329C12.8167 24.2479 11.4087 23.0467 10.0654 21.7163C8.735 20.3729 7.53375 18.965 6.46167 17.4925C5.4025 16.02 4.55 14.5475 3.93 13.0879C3.31 11.6154 3 10.2075 3 8.86417C3 7.98583 3.155 7.14625 3.465 6.37125C3.775 5.58333 4.26583 4.86 4.95042 4.21417C5.77708 3.40042 6.68125 3 7.63708 3C7.99875 3 8.36042 3.0775 8.68333 3.2325C9.01917 3.3875 9.31625 3.62 9.54875 3.95583L12.5454 8.17958C12.7779 8.5025 12.9458 8.79958 13.0621 9.08375C13.1783 9.355 13.2429 9.62625 13.2429 9.87167C13.2429 10.1817 13.1525 10.4917 12.9717 10.7888C12.8037 11.0858 12.5583 11.3958 12.2483 11.7058L11.2667 12.7263C11.1246 12.8683 11.06 13.0363 11.06 13.2429C11.06 13.3463 11.0729 13.4367 11.0987 13.54C11.1375 13.6433 11.1762 13.7208 11.2021 13.7983C11.4346 14.2246 11.835 14.78 12.4033 15.4517C12.9846 16.1233 13.6046 16.8079 14.2762 17.4925C14.9737 18.1771 15.6454 18.81 16.33 19.3913C17.0017 19.9596 17.5571 20.3471 17.9962 20.5796C18.0608 20.6054 18.1383 20.6442 18.2287 20.6829C18.3321 20.7217 18.4354 20.7346 18.5517 20.7346C18.7712 20.7346 18.9392 20.6571 19.0812 20.515L20.0629 19.5463C20.3858 19.2233 20.6958 18.9779 20.9929 18.8229C21.29 18.6421 21.5871 18.5517 21.91 18.5517C22.1554 18.5517 22.4137 18.6033 22.6979 18.7196C22.9821 18.8358 23.2792 19.0038 23.6021 19.2233L27.8775 22.2588C28.2133 22.4913 28.4458 22.7625 28.5879 23.0854C28.7171 23.4083 28.7946 23.7313 28.7946 24.0929Z" stroke="currentColor" stroke-width="2" stroke-miterlimit="10"/>
        <path d="M24.3138 12.0416C24.3138 11.2666 23.7067 10.0783 22.8026 9.1095C21.9759 8.21825 20.878 7.52075 19.793 7.52075" stroke="currentColor" stroke-width="2" stroke-linecap="round" stroke-linejoin="round"/>
        <path d="M28.8346 12.0417C28.8346 7.04292 24.7917 3 19.793 3" stroke="currentColor" stroke-width="2" stroke-linecap="round" stroke-linejoin="round"/>
    </symbol>

    <symbol id="instagram" viewBox="0 0 31 31" fill="none">
        <path d="M11.6257 28.4166H19.3757C25.834 28.4166 28.4173 25.8333 28.4173 19.3749V11.6249C28.4173 5.16659 25.834 2.58325 19.3757 2.58325H11.6257C5.16732 2.58325 2.58398 5.16659 2.58398 11.6249V19.3749C2.58398 25.8333 5.16732 28.4166 11.6257 28.4166Z" stroke="currentColor" stroke-width="2" stroke-linecap="round" stroke-linejoin="round"/>
        <path d="M15.4993 20.0209C17.9961 20.0209 20.0202 17.9969 20.0202 15.5001C20.0202 13.0033 17.9961 10.9792 15.4993 10.9792C13.0026 10.9792 10.9785 13.0033 10.9785 15.5001C10.9785 17.9969 13.0026 20.0209 15.4993 20.0209Z" stroke="currentColor" stroke-width="2" stroke-linecap="round" stroke-linejoin="round"/>
        <path d="M22.7806 9.04159H22.7956" stroke="currentColor" stroke-width="2.58333" stroke-linecap="round" stroke-linejoin="round"/>
    </symbol>
    <symbol id="telegram" viewBox="0 0 35 35" fill="none">
        <path d="M33.566 17.358C33.566 26.3094 26.3094 33.566 17.358 33.566C8.40657 33.566 1.15 26.3094 1.15 17.358C1.15 8.40657 8.40657 1.15 17.358 1.15C26.3094 1.15 33.566 8.40657 33.566 17.358Z" stroke="currentColor" stroke-width="2.3"/>
        <path d="M17.6458 12.0649C16.1448 12.6993 13.1588 14.0063 8.69657 15.9818C8.29837 16.1438 7.92359 16.3312 7.62266 16.5582C7.34485 16.7679 6.93727 17.1568 6.86269 17.7613C6.80713 18.2116 6.93627 18.6315 7.20223 18.9637C7.43296 19.2519 7.72608 19.4239 7.93995 19.5291C8.2556 19.6845 8.68164 19.8201 9.03909 19.9338C9.13226 19.9635 9.22076 19.9917 9.30144 20.0183C9.70907 20.1529 10.1953 20.3018 10.6591 20.42C11.0957 20.5313 11.6062 20.6405 12.022 20.6496C12.7792 20.6662 13.5023 20.3813 14.165 19.9553C14.0258 20.3867 14.0361 20.8735 14.2822 21.3525C14.5215 21.8181 14.9342 22.1757 15.3741 22.4703C15.9931 22.8848 16.4881 23.2273 16.9888 23.5738L17.0568 23.6209C17.5811 23.9836 18.1164 24.3533 18.8006 24.809C18.9597 24.915 19.1099 25.0238 19.2764 25.1444C19.3113 25.1697 19.347 25.1955 19.3836 25.2219C19.5833 25.3661 19.8122 25.5288 20.0535 25.6728C20.542 25.9644 21.1854 26.244 21.9758 26.1701C23.2185 26.0539 23.8154 24.9005 24.0483 23.6349C24.5559 20.8776 25.5644 14.8476 25.8007 12.3246C25.833 11.9799 25.7954 11.5986 25.7641 11.4126C25.7321 11.223 25.6308 10.6961 25.1433 10.2941C24.8686 10.0677 24.5686 9.9651 24.3643 9.91551C24.1532 9.86426 23.9521 9.84751 23.7965 9.85029C23.2981 9.85922 22.7741 10.0037 21.9389 10.3117C21.0834 10.6272 19.7721 11.1663 17.6458 12.0649Z" stroke="currentColor" stroke-width="2.3"/>
    </symbol>

    <symbol id="whatsapp" viewBox="0 0 37 37" fill="none">
        <path d="M10.5906 31.616C12.8928 32.9973 15.6553 33.7646 18.4179 33.7646C26.8591 33.7646 33.7655 26.8582 33.7655 18.4171C33.7655 9.97587 26.8591 3.06946 18.4179 3.06946C9.97673 3.06946 3.07031 9.97587 3.07031 18.4171C3.07031 21.1796 3.83769 23.7887 5.0655 26.0908L3.74629 31.1647C3.44743 32.3142 4.51134 33.3529 5.65329 33.0266L10.5906 31.616Z" stroke="currentColor" stroke-width="2.19251" stroke-miterlimit="10" stroke-linecap="round" stroke-linejoin="round"/>
        <path d="M25.3226 22.7888C25.3226 23.0374 25.2673 23.293 25.1497 23.5416C25.0321 23.7902 24.8799 24.025 24.6793 24.2461C24.3404 24.619 23.9669 24.8884 23.545 25.061C23.13 25.2337 22.6804 25.3235 22.1962 25.3235C21.4907 25.3235 20.7368 25.1577 19.9413 24.8193C19.1459 24.4809 18.3505 24.025 17.562 23.4518C16.7665 22.8717 16.0126 22.2294 15.2933 21.518C14.5808 20.7998 13.9376 20.047 13.3635 19.2596C12.7963 18.4723 12.3398 17.685 12.0078 16.9045C11.6758 16.1172 11.5098 15.3644 11.5098 14.6461C11.5098 14.1765 11.5928 13.7276 11.7588 13.3132C11.9248 12.8919 12.1876 12.5051 12.5542 12.1598C12.9969 11.7247 13.4811 11.5106 13.9929 11.5106C14.1866 11.5106 14.3802 11.5521 14.5532 11.6349C14.733 11.7178 14.8921 11.8421 15.0166 12.0217L16.6213 14.2801C16.7458 14.4528 16.8357 14.6116 16.8979 14.7635C16.9602 14.9086 16.9948 15.0536 16.9948 15.1848C16.9948 15.3506 16.9464 15.5163 16.8495 15.6752C16.7596 15.834 16.6282 15.9998 16.4622 16.1655L15.9365 16.7112C15.8604 16.7871 15.8258 16.8769 15.8258 16.9874C15.8258 17.0427 15.8328 17.091 15.8466 17.1463C15.8673 17.2015 15.8881 17.2429 15.9019 17.2844C16.0264 17.5123 16.2409 17.8093 16.5452 18.1684C16.8564 18.5275 17.1885 18.8936 17.5481 19.2596C17.9216 19.6257 18.2813 19.9641 18.6479 20.2749C19.0076 20.5787 19.305 20.7859 19.5402 20.9103C19.5747 20.9241 19.6162 20.9448 19.6647 20.9655C19.72 20.9862 19.7753 20.9931 19.8376 20.9931C19.9552 20.9931 20.0451 20.9517 20.1212 20.8757L20.6468 20.3577C20.8198 20.1851 20.9858 20.0539 21.1449 19.971C21.3039 19.8743 21.463 19.8259 21.6359 19.8259C21.7674 19.8259 21.9057 19.8536 22.0579 19.9157C22.21 19.9779 22.3691 20.0677 22.5421 20.1851L24.8315 21.8081C25.0113 21.9324 25.1358 22.0774 25.2119 22.2501C25.2811 22.4228 25.3226 22.5954 25.3226 22.7888Z" stroke="currentColor" stroke-width="2.19251" stroke-miterlimit="10"/>
    </symbol>






    <symbol id="search" viewBox="0 0 25 24" fill="none">
        <path d="M13.334 21C8.08728 21 3.83398 16.7467 3.83398 11.5C3.83398 6.25329 8.08728 2 13.334 2C18.5807 2 22.834 6.25329 22.834 11.5C22.834 16.7467 18.5807 21 13.334 21Z" stroke="currentColor" stroke-opacity="0.8" stroke-width="1.5" stroke-linecap="round" stroke-linejoin="round"/>
        <path d="M2.83398 22L4.83398 20" stroke="currentColor" stroke-opacity="0.8" stroke-width="1.5" stroke-linecap="round" stroke-linejoin="round"/>
    </symbol>




    <symbol id="chat" viewBox="0 0 33 32" fill="none">
        <path d="M20.3142 23.1208L20.3109 23.1323L20.308 23.1439C19.8965 24.7788 18.5597 25.8267 16.5945 25.8267H12.9678H12.7662L12.5984 25.9384L8.57177 28.6183L8.57172 28.6183L8.56294 28.6243C8.4223 28.7212 8.20781 28.6304 8.20781 28.4267V26.4933V25.8267H7.54115C6.33182 25.8267 5.37685 25.4262 4.73255 24.7819C4.07389 24.1233 3.67448 23.1677 3.67448 21.96V16.5333C3.67448 15.4071 4.02215 14.5019 4.5955 13.8586C5.167 13.2173 6.00261 12.7913 7.06455 12.6909C7.23834 12.6776 7.38555 12.6667 7.54115 12.6667H16.5945C17.803 12.6667 18.7583 13.0666 19.4097 13.7181C20.0612 14.3696 20.4611 15.3248 20.4611 16.5333V21.96C20.4611 22.3923 20.4129 22.7809 20.3142 23.1208Z" fill="currentColor" stroke="currentColor" stroke-width="1.33333"/>
        <path d="M27.6462 18.7654L27.6462 18.7654L27.6399 18.7717C26.7982 19.6248 25.5529 20.1333 24.0078 20.1333L23.7945 20.1333V16.5333C23.7945 12.5518 20.576 9.33329 16.5945 9.33329L7.67448 9.33329V8.33329C7.67448 5.56815 9.90934 3.33329 12.6745 3.33329H24.0078C26.773 3.33329 29.0078 5.56815 29.0078 8.33329V15.1333C29.0078 16.6784 28.4993 17.9237 27.6462 18.7654Z" fill="currentColor" stroke="currentColor" stroke-width="1.33333"/>
    </symbol>



    <symbol id="headphone" viewBox="0 0 32 32" fill="none">
        <path d="M27.8054 11.7465C27.1707 11.6777 26.6738 11.1687 26.6203 10.5326C26.612 10.4335 26.6025 10.3353 26.592 10.2379C26.6202 10.5941 26.5043 10.9473 26.2692 11.2179C26.0247 11.4992 25.6736 11.6653 25.301 11.676C23.1811 11.7367 22.4411 12.1043 22.067 12.5848C21.8573 12.8543 21.6623 13.2831 21.5278 14.0204C21.3927 14.7609 21.3333 15.726 21.3333 16.9999C21.3333 18.281 21.3934 19.2495 21.53 19.9913C21.6659 20.7295 21.8627 21.1563 22.074 21.4239C22.4542 21.9054 23.21 22.2708 25.3673 22.3257C26.0589 22.3433 26.6163 22.8853 26.6635 23.565C26.6672 22.8953 27.1717 22.3249 27.8475 22.2488C29.2761 22.0877 29.7739 21.7155 30.0639 21.2209C30.4554 20.5529 30.6667 19.3457 30.6667 16.9999C30.6667 14.6417 30.453 13.435 30.0586 12.7701C29.7664 12.2773 29.2609 11.9041 27.8054 11.7465ZM23.8906 4.68901C24.8865 5.54853 25.6345 6.64939 26.1015 7.99221C25.638 6.65697 24.8948 5.55568 23.8906 4.68901ZM6.69979 11.676C6.32693 11.6653 5.97561 11.4989 5.73111 11.2172C5.49601 10.9463 5.38035 10.5926 5.40902 10.2363C5.39824 10.3345 5.3886 10.4336 5.38011 10.5337C5.3261 11.1694 4.82935 11.6777 4.19506 11.7464C2.73924 11.904 2.23371 12.2772 1.94143 12.77C1.54699 13.4349 1.33333 14.6415 1.33333 16.9999C1.33333 18.3453 1.39966 19.344 1.55011 20.0962C1.69896 20.8404 1.91221 21.249 2.13818 21.5001C2.58422 21.9957 3.49682 22.3333 6 22.3333C8.50318 22.3333 9.41578 21.9957 9.86181 21.5001C10.0878 21.249 10.301 20.8404 10.4499 20.0962C10.6003 19.344 10.6667 18.3453 10.6667 16.9999C10.6667 15.7261 10.6073 14.7611 10.4722 14.0206C10.3377 13.2832 10.1428 12.8545 9.93304 12.5849C9.55905 12.1044 8.81926 11.7368 6.69979 11.676ZM5.91404 7.96597C6.3929 6.61757 7.15821 5.51672 8.1722 4.66015C7.1492 5.52434 6.38904 6.62585 5.91404 7.96597Z" fill="currentColor" stroke="currentColor" stroke-width="2.66667" stroke-linecap="round" stroke-linejoin="round"/>
    </symbol>

    <symbol id="service" viewBox="0 0 29 29" fill="none">
        <path d="M17.6018 7.73819C17.3575 7.98743 17.2206 8.32252 17.2206 8.67152C17.2206 9.02053 17.3575 9.35562 17.6018 9.60486L19.7351 11.7382C19.9843 11.9825 20.3194 12.1193 20.6684 12.1193C21.0174 12.1193 21.3525 11.9825 21.6018 11.7382L26.6284 6.71152C27.2989 8.19311 27.5019 9.84384 27.2104 11.4437C26.9189 13.0436 26.1467 14.5166 24.9968 15.6666C23.8469 16.8165 22.3738 17.5886 20.774 17.8801C19.1741 18.1716 17.5233 17.9686 16.0418 17.2982L6.82843 26.5115C6.29799 27.042 5.57857 27.3399 4.82843 27.3399C4.07828 27.3399 3.35886 27.042 2.82843 26.5115C2.29799 25.9811 2 25.2617 2 24.5115C2 23.7614 2.29799 23.042 2.82843 22.5115L12.0418 13.2982C11.3713 11.8166 11.1683 10.1659 11.4598 8.566C11.7513 6.96611 12.5235 5.49306 13.6734 4.34315C14.8233 3.19324 16.2964 2.42108 17.8962 2.12958C19.4961 1.83808 21.1468 2.04108 22.6284 2.71152L17.6018 7.73819Z" fill="currentColor" stroke="currentColor" stroke-width="1.5" stroke-linecap="round" stroke-linejoin="round"/>
    </symbol>


    <symbol id="angle-left" viewBox="0 0 16 16" fill="currentColor">
        <path d="M10.6558 0.352185C10.8762 0.577756 11 0.883657 11 1.20262C11 1.52157 10.8762 1.82747 10.6558 2.05305L4.83731 8.00726L10.6558 13.9615C10.87 14.1883 10.9884 14.4922 10.9858 14.8076C10.9831 15.123 10.8595 15.4247 10.6415 15.6477C10.4236 15.8707 10.1288 15.9972 9.82056 16C9.51236 16.0027 9.21544 15.8815 8.99374 15.6623L2.34416 8.85769C2.12379 8.63212 2 8.32622 2 8.00726C2 7.6883 2.12379 7.3824 2.34416 7.15683L8.99374 0.352185C9.21417 0.126681 9.5131 0 9.82479 0C10.1365 0 10.4354 0.126681 10.6558 0.352185Z"/>
    </symbol>


    <symbol id="phone-2" viewBox="0 0 24 24" fill="none">
            <path d="M21.97 18.33C21.97 18.69 21.89 19.06 21.72 19.42C21.55 19.78 21.33 20.12 21.04 20.44C20.55 20.98 20.01 21.37 19.4 21.62C18.8 21.87 18.15 22 17.45 22C16.43 22 15.34 21.76 14.19 21.27C13.04 20.78 11.89 20.12 10.75 19.29C9.6 18.45 8.51 17.52 7.47 16.49C6.44 15.45 5.51 14.36 4.68 13.22C3.86 12.08 3.2 10.94 2.72 9.81C2.24 8.67 2 7.58 2 6.54C2 5.86 2.12 5.21 2.36 4.61C2.6 4 2.98 3.44 3.51 2.94C4.15 2.31 4.85 2 5.59 2C5.87 2 6.15 2.06 6.4 2.18C6.66 2.3 6.89 2.48 7.07 2.74L9.39 6.01C9.57 6.26 9.7 6.49 9.79 6.71C9.88 6.92 9.93 7.13 9.93 7.32C9.93 7.56 9.86 7.8 9.72 8.03C9.59 8.26 9.4 8.5 9.16 8.74L8.4 9.53C8.29 9.64 8.24 9.77 8.24 9.93C8.24 10.01 8.25 10.08 8.27 10.16C8.3 10.24 8.33 10.3 8.35 10.36C8.53 10.69 8.84 11.12 9.28 11.64C9.73 12.16 10.21 12.69 10.73 13.22C11.27 13.75 11.79 14.24 12.32 14.69C12.84 15.13 13.27 15.43 13.61 15.61C13.66 15.63 13.72 15.66 13.79 15.69C13.87 15.72 13.95 15.73 14.04 15.73C14.21 15.73 14.34 15.67 14.45 15.56L15.21 14.81C15.46 14.56 15.7 14.37 15.93 14.25C16.16 14.11 16.39 14.04 16.64 14.04C16.83 14.04 17.03 14.08 17.25 14.17C17.47 14.26 17.7 14.39 17.95 14.56L21.26 16.91C21.52 17.09 21.7 17.3 21.81 17.55C21.91 17.8 21.97 18.05 21.97 18.33Z" stroke="currentColor" stroke-opacity="0.5" stroke-width="1.5" stroke-miterlimit="10"/>
    </symbol>

    <symbol id="fax" viewBox="0 0 24 24" fill="none">
            <path d="M7 12C3 12 3 13.79 3 16V17C3 19.76 3 22 8 22H16C20 22 21 19.76 21 17V16C21 13.79 21 12 17 12C16 12 15.72 12.21 15.2 12.6L14.18 13.68C13 14.94 11 14.94 9.81 13.68L8.8 12.6C8.28 12.21 8 12 7 12Z" stroke="currentColor" stroke-opacity="0.5" stroke-width="1.5" stroke-miterlimit="10" stroke-linecap="round" stroke-linejoin="round"/>
            <path d="M19 12V6C19 3.79 19 2 15 2H9C5 2 5 3.79 5 6V12" stroke="currentColor" stroke-opacity="0.5" stroke-width="1.5" stroke-miterlimit="10" stroke-linecap="round" stroke-linejoin="round"/>
            <path d="M10.5498 9.22998H13.8798" stroke="currentColor" stroke-opacity="0.5" stroke-width="1.5" stroke-linecap="round" stroke-linejoin="round"/>
            <path d="M9.71973 6.22998H14.7197" stroke="currentColor" stroke-opacity="0.5" stroke-width="1.5" stroke-linecap="round" stroke-linejoin="round"/>
    </symbol>

    <symbol id="email" viewBox="0 0 24 24" fill="none">
            <path d="M2 8.5C2 5 4 3.5 7 3.5H17C20 3.5 22 5 22 8.5V15.5C22 19 20 20.5 17 20.5H7" stroke="currentColor" stroke-opacity="0.5" stroke-width="1.5" stroke-miterlimit="10" stroke-linecap="round" stroke-linejoin="round"/>
            <path d="M17 9L13.87 11.5C12.84 12.32 11.15 12.32 10.12 11.5L7 9" stroke="currentColor" stroke-opacity="0.5" stroke-width="1.5" stroke-miterlimit="10" stroke-linecap="round" stroke-linejoin="round"/>
            <path d="M2 16.5H8" stroke="currentColor" stroke-opacity="0.5" stroke-width="1.5" stroke-miterlimit="10" stroke-linecap="round" stroke-linejoin="round"/>
            <path d="M2 12.5H5" stroke="currentColor" stroke-opacity="0.5" stroke-width="1.5" stroke-miterlimit="10" stroke-linecap="round" stroke-linejoin="round"/>
    </symbol>



    <symbol id="pin" viewBox="0 0 24 24" fill="none">
            <path d="M11.9999 13.4299C13.723 13.4299 15.1199 12.0331 15.1199 10.3099C15.1199 8.58681 13.723 7.18994 11.9999 7.18994C10.2768 7.18994 8.87988 8.58681 8.87988 10.3099C8.87988 12.0331 10.2768 13.4299 11.9999 13.4299Z" stroke="currentColor" stroke-opacity="0.5" stroke-width="1.5"/>
            <path d="M3.61971 8.49C5.58971 -0.169998 18.4197 -0.159997 20.3797 8.5C21.5297 13.58 18.3697 17.88 15.5997 20.54C13.5897 22.48 10.4097 22.48 8.38971 20.54C5.62971 17.88 2.46971 13.57 3.61971 8.49Z" stroke="currentColor" stroke-opacity="0.5" stroke-width="1.5"/>
    </symbol>






    <symbol id="play-colored" viewBox="0 0 129 129" fill="none">
        <path opacity="0.08" fill-rule="evenodd" clip-rule="evenodd" d="M64 122C96.0325 122 122 96.0325 122 64C122 31.9675 96.0325 6 64 6C31.9675 6 6 31.9675 6 64C6 96.0325 31.9675 122 64 122ZM84.7841 61.9949C83.9989 58.6478 80.3043 56.1532 72.9153 51.1641C63.8115 45.0172 59.2597 41.9437 55.5113 42.8339C54.0495 43.181 52.7013 43.8975 51.5957 44.9146C48.7604 47.5231 48.7604 53.0154 48.7604 64C48.7604 74.9847 48.7604 80.477 51.5957 83.0854C52.7013 84.1026 54.0495 84.8191 55.5113 85.1662C59.2597 86.0564 63.8115 82.9829 72.9153 76.836C80.3043 71.8468 83.9989 69.3523 84.7841 66.0052C85.0935 64.6863 85.0935 63.3138 84.7841 61.9949Z" fill="white"/>
        <g opacity="0.08" filter="url(#filter0_d_235_567)">
        <path fill-rule="evenodd" clip-rule="evenodd" d="M64.0164 112.033C90.5351 112.033 112.033 90.5351 112.033 64.0164C112.033 37.4977 90.5351 16 64.0164 16C37.4977 16 16 37.4977 16 64.0164C16 90.5351 37.4977 112.033 64.0164 112.033ZM81.2225 62.3564C80.5724 59.5854 77.5138 57.5203 71.3966 53.3899C63.8599 48.3011 60.0916 45.7567 56.9884 46.4936C55.7783 46.781 54.6621 47.3741 53.7468 48.2162C51.3995 50.3756 51.3995 54.9226 51.3995 64.0164C51.3995 73.1102 51.3995 77.6572 53.7468 79.8166C54.6621 80.6587 55.7783 81.2518 56.9884 81.5392C60.0916 82.2761 63.8599 79.7317 71.3966 74.6429C77.5138 70.5125 80.5724 68.4473 81.2225 65.6764C81.4786 64.5845 81.4786 63.4482 81.2225 62.3564Z" fill="white"/>
        </g>
        <g filter="url(#filter1_d_235_567)">
        <path fill-rule="evenodd" clip-rule="evenodd" d="M63.5 105C85.8675 105 104 86.8675 104 64.5C104 42.1325 85.8675 24 63.5 24C41.1325 24 23 42.1325 23 64.5C23 86.8675 41.1325 105 63.5 105ZM76.5095 63.2392C76.0158 61.1346 73.6928 59.5661 69.0467 56.4291C63.3225 52.564 60.4604 50.6315 58.1035 51.1912C57.1844 51.4095 56.3367 51.86 55.6415 52.4996C53.8587 54.1397 53.8587 57.5931 53.8587 64.5C53.8587 71.4069 53.8587 74.8603 55.6415 76.5004C56.3367 77.14 57.1844 77.5905 58.1035 77.8088C60.4604 78.3685 63.3225 76.436 69.0467 72.571L69.0467 72.5709L69.0467 72.5709C73.6928 69.4339 76.0158 67.8654 76.5095 65.7608C76.7041 64.9315 76.7041 64.0685 76.5095 63.2392Z" fill="white"/>
        </g>
        <defs>
        <filter id="filter0_d_235_567" x="0" y="0" width="128.033" height="128.033" filterUnits="userSpaceOnUse" color-interpolation-filters="sRGB">
        <feFlood flood-opacity="0" result="BackgroundImageFix"/>
        <feColorMatrix in="SourceAlpha" type="matrix" values="0 0 0 0 0 0 0 0 0 0 0 0 0 0 0 0 0 0 127 0" result="hardAlpha"/>
        <feOffset/>
        <feGaussianBlur stdDeviation="8"/>
        <feComposite in2="hardAlpha" operator="out"/>
        <feColorMatrix type="matrix" values="0 0 0 0 0 0 0 0 0 0 0 0 0 0 0 0 0 0 0.5 0"/>
        <feBlend mode="normal" in2="BackgroundImageFix" result="effect1_dropShadow_235_567"/>
        <feBlend mode="normal" in="SourceGraphic" in2="effect1_dropShadow_235_567" result="shape"/>
        </filter>
        <filter id="filter1_d_235_567" x="7" y="8" width="113" height="113" filterUnits="userSpaceOnUse" color-interpolation-filters="sRGB">
        <feFlood flood-opacity="0" result="BackgroundImageFix"/>
        <feColorMatrix in="SourceAlpha" type="matrix" values="0 0 0 0 0 0 0 0 0 0 0 0 0 0 0 0 0 0 127 0" result="hardAlpha"/>
        <feOffset/>
        <feGaussianBlur stdDeviation="8"/>
        <feComposite in2="hardAlpha" operator="out"/>
        <feColorMatrix type="matrix" values="0 0 0 0 0 0 0 0 0 0 0 0 0 0 0 0 0 0 0.05 0"/>
        <feBlend mode="normal" in2="BackgroundImageFix" result="effect1_dropShadow_235_567"/>
        <feBlend mode="normal" in="SourceGraphic" in2="effect1_dropShadow_235_567" result="shape"/>
        </filter>
        </defs>
    </symbol>


    <symbol id="heart-colored" viewBox="0 0 18 17" fill="none">
        <path d="M5.61887 -1.4206e-05C6.18254 0.0171284 6.72832 0.115548 7.2571 0.295387H7.30989C7.34568 0.312387 7.37252 0.331176 7.39042 0.348176C7.58815 0.411701 7.77515 0.483279 7.95409 0.581698L8.29409 0.733801C8.4283 0.805378 8.58935 0.938692 8.67882 0.99327C8.76829 1.04606 8.86671 1.10064 8.94724 1.16237C9.94127 0.402754 11.1483 -0.00881856 12.3919 -1.4206e-05C12.9565 -1.4206e-05 13.5202 0.0797589 14.0561 0.259598C17.3585 1.33326 18.5485 4.95689 17.5545 8.1242C16.9908 9.74276 16.0692 11.2199 14.8622 12.4269C13.1345 14.1001 11.2386 15.5853 9.19776 16.8647L8.97408 16.9998L8.74145 16.8558C6.69343 15.5853 4.78678 14.1001 3.04296 12.418C1.84404 11.211 0.921578 9.74276 0.348956 8.1242C-0.66208 4.95689 0.527901 1.33326 3.86611 0.240809C4.12558 0.151337 4.3931 0.0887061 4.66152 0.053812H4.76888C5.0203 0.0171284 5.26993 -1.4206e-05 5.52045 -1.4206e-05H5.61887ZM13.5908 2.82745C13.224 2.70129 12.8214 2.89903 12.6872 3.27481C12.5619 3.65059 12.7588 4.06217 13.1345 4.19548C13.7081 4.41021 14.0919 4.97478 14.0919 5.60019V5.62793C14.0749 5.83282 14.1366 6.03055 14.2619 6.18266C14.3871 6.33476 14.575 6.42334 14.7719 6.44213C15.1387 6.43229 15.4519 6.13792 15.4787 5.76124V5.65477C15.5055 4.40127 14.7459 3.26586 13.5908 2.82745Z" fill="#FF9027"/>
    </symbol>





</svg>
